<svg width="100" height="100" viewBox="0 0 100 100" fill="none" xmlns="http://www.w3.org/2000/svg">
<circle cx="50" cy="50" r="50" fill="#D9EEE1"/>
<g clip-path="url(#clip0_1166_14817)">
<path fill-rule="evenodd" clip-rule="evenodd" d="M31.293 25C27.6412 25 24.9391 28.1962 25.0601 31.6625C25.1761 34.9927 25.0254 39.3056 23.9395 42.8229C22.8504 46.3505 21.0085 48.5851 18 48.872V52.111C21.0085 52.398 22.8504 54.6325 23.9395 58.1601C25.0254 61.6774 25.1761 65.9904 25.0601 69.3205C24.9391 72.7863 27.6412 75.983 31.2936 75.983H68.7119C72.3637 75.983 75.0652 72.7868 74.9443 69.3205C74.8282 65.9904 74.979 61.6774 76.0648 58.1601C77.1544 54.6325 78.9915 52.398 82 52.111V48.872C78.9915 48.5851 77.1544 46.3505 76.0648 42.8229C74.979 39.3062 74.8282 34.9927 74.9443 31.6625C75.0652 28.1967 72.3637 25 68.7119 25H31.2925H31.293ZM61.3898 56.3833C61.3898 61.1562 57.8297 64.0508 51.9216 64.0508H41.8644C41.5767 64.0508 41.3008 63.9366 41.0974 63.7331C40.8939 63.5297 40.7797 63.2538 40.7797 62.9661V38.0169C40.7797 37.7293 40.8939 37.4533 41.0974 37.2499C41.3008 37.0465 41.5767 36.9322 41.8644 36.9322H51.8641C56.7905 36.9322 60.0236 39.6007 60.0236 43.6978C60.0236 46.5734 57.8487 49.1481 55.0777 49.5988V49.749C58.8499 50.1628 61.3898 52.7749 61.3898 56.3833ZM50.8249 40.3708H45.0904V48.4706H49.9203C53.654 48.4706 55.7128 46.9672 55.7128 44.2797C55.7128 41.7615 53.9425 40.3708 50.8249 40.3708V40.3708ZM45.0904 51.6847V60.6111H51.0359C54.9231 60.6111 56.9825 59.0512 56.9825 56.1197C56.9825 53.1877 54.8656 51.6842 50.7859 51.6842H45.0904V51.6847Z" fill="#282A35"/>
</g>
<defs>
<clipPath id="clip0_1166_14817">
<rect width="64" height="50.983" fill="white" transform="translate(18 25)"/>
</clipPath>
</defs>
</svg>
