<svg width="100" height="100" viewBox="0 0 100 100" fill="none" xmlns="http://www.w3.org/2000/svg">
<circle cx="50" cy="50" r="50" fill="white"/>
<g clip-path="url(#clip0_4782_80809)">
<path d="M20.9604 36H25.1168V55.2385C22.9846 55.6433 21.4192 55.8052 19.719 55.8052C14.6449 55.805 12 53.5113 12 49.1119C12 44.8746 14.807 42.1219 19.1521 42.1219C19.8268 42.1219 20.3395 42.1757 20.9604 42.3376V36ZM20.9604 45.684C20.4746 45.5223 20.0698 45.4683 19.5571 45.4683C17.4519 45.4683 16.2373 46.7638 16.2373 49.0308C16.2373 51.2441 17.3979 52.4585 19.5301 52.4585C19.9887 52.4585 20.3667 52.4315 20.9604 52.3507V45.684Z" fill="#092E20"/>
<path d="M31.7288 42.4186V52.0535C31.7288 55.3732 31.4859 56.9655 30.7573 58.342C30.0824 59.6647 29.1917 60.5011 27.3566 61.4189L23.4971 59.5836C25.3324 58.72 26.2229 57.9645 26.7897 56.8035C27.3836 55.6161 27.5726 54.2396 27.5726 50.6232V42.4186H31.7288ZM27.5726 36.0221H31.7288V40.2864H27.5726V36.0221Z" fill="#092E20"/>
<path d="M34.2393 43.3632C36.0747 42.4998 37.8289 42.1219 39.7451 42.1219C41.8773 42.1219 43.2806 42.6885 43.9015 43.7951C44.2522 44.4159 44.3601 45.2255 44.3601 46.953V55.4003C42.4976 55.6702 40.1498 55.8592 38.4226 55.8592C34.9411 55.8592 33.3755 54.6443 33.3755 51.9456C33.3755 49.0306 35.4537 47.6813 40.5548 47.2493V46.3318C40.5548 45.5761 40.1769 45.3064 39.1243 45.3064C37.586 45.3064 35.8587 45.7382 34.2391 46.575V43.3632H34.2393ZM40.7437 49.9755C37.9906 50.2454 37.1001 50.6774 37.1001 51.7569C37.1001 52.5665 37.613 52.9443 38.7464 52.9443C39.3673 52.9443 39.9339 52.8905 40.7437 52.7556V49.9755Z" fill="#092E20"/>
<path d="M46.3845 43.0663C48.8403 42.4186 50.8646 42.1219 52.9157 42.1219C55.0479 42.1219 56.5863 42.6075 57.5042 43.5523C58.3678 44.4427 58.6375 45.4142 58.6375 47.4927V55.6432H54.4812V47.6547C54.4812 46.0624 53.9414 45.4683 52.4571 45.4683C51.8904 45.4683 51.3777 45.5223 50.5407 45.7652V55.6432H46.3845V43.0663Z" fill="#092E20"/>
<path d="M60.2531 57.9104C61.7108 58.666 63.1681 59.0167 64.7064 59.0167C67.4321 59.0167 68.5927 57.9104 68.5927 55.2653C68.5927 55.2383 68.5927 55.2113 68.5927 55.1843C67.7831 55.5889 66.9733 55.751 65.894 55.751C62.2504 55.751 59.929 53.349 59.929 49.5437C59.929 44.8202 63.3568 42.1487 69.4291 42.1487C71.2106 42.1487 72.857 42.3374 74.8542 42.7422L73.431 45.7402C72.3244 45.5243 73.3424 45.7113 72.5062 45.6304V46.0623L72.56 47.8163L72.5868 50.0836C72.6138 50.6501 72.6138 51.217 72.6409 51.7838C72.6409 52.2965 72.6409 52.5396 72.6409 52.9174C72.6409 56.48 72.3441 58.1532 71.4535 59.5296C70.1579 61.554 67.9178 62.5525 64.7332 62.5525C63.1138 62.5525 61.7106 62.3096 60.253 61.7427V57.9104H60.2531ZM68.5119 45.4953C68.4579 45.4953 68.4041 45.4953 68.3771 45.4953H68.0801C67.2707 45.4683 66.3261 45.684 65.6781 46.0888C64.6797 46.6557 64.1666 47.6814 64.1666 49.1387C64.1666 51.217 65.1925 52.4045 67.0276 52.4045C67.5943 52.4045 68.0533 52.2964 68.5929 52.1346V51.8376V50.7043C68.5929 50.2185 68.566 49.6784 68.566 49.1119L68.5392 47.1958L68.5121 45.8193V45.4953H68.5119Z" fill="#092E20"/>
<path d="M81.3067 42.0677C85.4629 42.0677 88 44.6858 88 48.923C88 53.2684 85.3553 55.9943 81.1448 55.9943C76.9883 55.9943 74.4243 53.3762 74.4243 49.1661C74.4245 44.7934 77.0696 42.0677 81.3067 42.0677ZM81.2254 52.6474C82.818 52.6474 83.7627 51.3248 83.7627 49.0308C83.7627 46.7639 82.845 45.4143 81.2529 45.4143C79.6064 45.4143 78.6615 46.737 78.6615 49.0308C78.6616 51.325 79.6064 52.6474 81.2254 52.6474Z" fill="#092E20"/>
</g>
<defs>
<clipPath id="clip0_4782_80809">
<rect width="76" height="26.5523" fill="white" transform="translate(12 36)"/>
</clipPath>
</defs>
</svg>
