<svg width="100" height="100" viewBox="0 0 100 100" fill="none" xmlns="http://www.w3.org/2000/svg">
<circle cx="50" cy="50" r="50" fill="#D9EEE1"/>
<path d="M69.5312 25.6875H30.3438C27.3379 25.6875 25 28.1367 25 31.0312V70.2188C25 73.2246 27.3379 75.5625 30.3438 75.5625H69.5312C72.4258 75.5625 74.875 73.2246 74.875 70.2188V31.0312C74.875 28.1367 72.4258 25.6875 69.5312 25.6875ZM52.0527 64.6523C52.0527 69.4395 49.2695 71.666 45.0391 71.666C41.3652 71.666 39.1387 69.7734 38.0254 67.4355L41.9219 65.0977C42.5898 66.4336 43.2578 67.5469 44.9277 67.5469C46.375 67.5469 47.377 66.8789 47.377 64.541V48.6211H52.0527V64.6523ZM63.1855 71.666C58.8438 71.666 56.0605 69.6621 54.6133 66.8789L58.5098 64.7637C59.5117 66.3223 60.7363 67.5469 63.0742 67.5469C64.9668 67.5469 66.3027 66.5449 66.3027 65.209C66.3027 63.6504 64.9668 63.0938 62.8516 62.0918L61.627 61.6465C58.2871 60.1992 56.0605 58.418 56.0605 54.5215C56.0605 51.0703 58.7324 48.3984 62.9629 48.3984C65.8574 48.3984 68.084 49.4004 69.5312 52.0723L65.9688 54.4102C65.0781 53.0742 64.2988 52.4062 62.8516 52.4062C61.5156 52.4062 60.625 53.2969 60.625 54.4102C60.625 55.8574 61.5156 56.4141 63.5195 57.3047L64.7441 57.8613C68.752 59.5312 70.9785 61.3125 70.9785 65.209C70.9785 69.4395 67.6387 71.666 63.1855 71.666Z" fill="#282A35"/>
</svg>
