<svg width="100" height="100" viewBox="0 0 100 100" fill="none" xmlns="http://www.w3.org/2000/svg">
<circle cx="50" cy="50" r="50" fill="#FFF4A3"/>
<path d="M22.1828 66.5327C19.9337 66.5327 17.9543 66.3157 16.2445 65.8816C14.5478 65.4476 12.9695 64.9084 11.5096 64.2639V57.28H12.1804C13.6534 58.5295 15.2778 59.4896 17.0533 60.1604C18.8289 60.8311 20.5519 61.1665 22.2222 61.1665C22.6431 61.1665 23.1955 61.1205 23.8794 61.0284C24.5765 60.9363 25.1355 60.7917 25.5563 60.5944C26.0693 60.3708 26.5033 60.0617 26.8584 59.6671C27.2135 59.2594 27.3911 58.7267 27.3911 58.0691C27.3911 57.3326 27.1017 56.7342 26.523 56.2738C25.9443 55.8135 25.2538 55.4781 24.4515 55.2677C23.452 55.0046 22.38 54.7547 21.2358 54.518C20.1047 54.2813 19.0459 53.9919 18.0595 53.6499C15.7841 52.8476 14.1532 51.7692 13.1668 50.4145C12.1804 49.0598 11.6872 47.3631 11.6872 45.3245C11.6872 42.5757 12.8512 40.3529 15.1791 38.6563C17.5071 36.9464 20.4138 36.0915 23.8991 36.0915C25.6484 36.0915 27.3845 36.2691 29.1075 36.6242C30.8436 36.9793 32.3956 37.4594 33.7634 38.0644V44.7721H33.1124C32.0207 43.8383 30.6858 43.0491 29.1075 42.4047C27.5423 41.7602 25.9312 41.438 24.274 41.438C23.6295 41.438 23.0508 41.484 22.5379 41.5761C22.0249 41.6681 21.4857 41.8457 20.9201 42.1087C20.4598 42.3192 20.0586 42.6348 19.7167 43.0557C19.3879 43.4634 19.2235 43.9238 19.2235 44.4367C19.2235 45.1864 19.4865 45.7848 20.0126 46.232C20.5519 46.666 21.5843 47.0606 23.11 47.4157C24.0964 47.6393 25.0434 47.8563 25.9509 48.0668C26.8716 48.2772 27.8514 48.5666 28.8905 48.9348C30.9291 49.6713 32.4416 50.6644 33.428 51.9138C34.4276 53.1501 34.9274 54.7876 34.9274 56.8262C34.9274 59.7461 33.7766 62.0938 31.4749 63.8693C29.1864 65.6449 26.089 66.5327 22.1828 66.5327Z" fill="#282A35"/>
<path d="M65.4277 73.773C64.6386 73.9703 63.8428 74.115 63.0406 74.2071C62.2514 74.2991 61.0085 74.3452 59.3119 74.3452C57.7599 74.3452 56.4381 74.1479 55.3464 73.7533C54.2679 73.3719 53.367 72.8261 52.6436 72.1158C51.9202 71.4188 51.3744 70.5902 51.0061 69.6301C50.651 68.6699 50.4472 67.6375 50.3946 66.5327C46.2384 66.3485 42.9635 64.9084 40.5697 62.2121C38.1892 59.5159 36.9989 55.8858 36.9989 51.322C36.9989 46.6003 38.2615 42.8716 40.7868 40.1359C43.312 37.387 46.7908 36.0126 51.2232 36.0126C55.6423 36.0126 59.1211 37.3805 61.6595 40.1162C64.198 42.8387 65.4672 46.574 65.4672 51.322C65.4672 54.781 64.7438 57.7535 63.297 60.2393C61.8634 62.7119 59.8314 64.4678 57.2009 65.5068C57.2272 66.9404 57.5429 67.9268 58.1479 68.4661C58.766 69.0185 59.8445 69.2947 61.3834 69.2947C61.9752 69.2947 62.5999 69.2026 63.2576 69.0185C63.9283 68.8475 64.4084 68.6831 64.6977 68.5253H65.4277V73.773ZM55.8791 58.7596C56.5104 57.9047 56.997 56.9117 57.339 55.7806C57.681 54.6364 57.8519 53.1436 57.8519 51.3022C57.8519 49.553 57.6678 48.0668 57.2995 46.8436C56.9444 45.6073 56.4644 44.5945 55.8594 43.8054C55.228 43.0031 54.5112 42.431 53.709 42.089C52.9198 41.7339 52.0978 41.5563 51.2429 41.5563C50.3354 41.5563 49.5133 41.7207 48.7768 42.0496C48.0403 42.3652 47.3301 42.9373 46.6461 43.7659C46.0411 44.5288 45.5479 45.5415 45.1665 46.8041C44.7982 48.0668 44.6141 49.5727 44.6141 51.322C44.6141 53.1238 44.7917 54.6232 45.1468 55.8201C45.5019 57.0038 45.9885 57.9968 46.6067 58.7991C47.238 59.6145 47.9548 60.1998 48.7571 60.5549C49.5594 60.8969 50.388 61.0679 51.2429 61.0679C52.1109 61.0679 52.9527 60.8837 53.7681 60.5155C54.5836 60.1341 55.2872 59.5488 55.8791 58.7596Z" fill="#282A35"/>
<path d="M89.4571 66H69.8469V36.6242H77.2254V60.3971H89.4571V66Z" fill="#282A35"/>
</svg>
